<mxfile host="app.diagrams.net" modified="2024-01-12T09:33:34.870Z" agent="Mozilla/5.0 (Windows NT 10.0; Win64; x64) AppleWebKit/537.36 (KHTML, like Gecko) Chrome/120.0.0.0 Safari/537.36" version="22.1.18" etag="dCrrH-T4z-v8tRt4c8eI" type="github">
  <diagram name="Page-1" id="Ckq2L-BOseacbZU_o7jn">
    <mxGraphModel>
      <root>
        <mxCell id="0" />
        <mxCell id="1" parent="0" />
      </root>
    </mxGraphModel>
  </diagram>
</mxfile>
